<svg xmlns="http://www.w3.org/2000/svg" viewBox="0 -34.1 8137.4 1948.6999999999998" id="svg">
    <g clip-rule="evenodd" fill-rule="evenodd">
        <path fill="currentColor"
            d="M2060 899.8c0-262.1 220.3-475.5 482.4-475.5 144.9 0 248 56.9 325.8 131l-91.6 91.6c-55.6-52.2-131-92.7-234.3-92.7-191.4 0-341 154.1-341 345.5s149.6 345.7 340.9 345.7c124.1 0 194.7-49.8 240-95.2 37.1-37.1 61.4-90.4 70.8-163.5h-310.6V857.1h437.2c4.6 23.2 7 51 7 81.1 0 97.3-26.7 218-112.6 303.9-83.6 87-190.2 133.4-331.7 133.4-262.2 0-482.5-213.2-482.5-475.5zM3340 763c-169.3 0-307.5 128.8-307.5 306.1 0 176.4 138.1 306.1 307.5 306.1s307.3-129.9 307.3-306.2c0-177.3-138-306.1-307.3-306zm0 491.8c-92.7 0-172.8-76.5-172.8-185.6 0-110.2 80-185.6 172.8-185.6 92.7 0 172.7 75.3 172.7 185.6 0 109-79.9 185.6-172.7 185.6zM4010.5 763c-169.3 0-307.3 128.8-307.3 306.1 0 176.4 138 306.1 307.3 306.1s307.3-129.9 307.3-306.2c0-177.3-137.9-306.1-307.3-306zm0 491.8c-92.7 0-172.8-76.5-172.8-185.6 0-110.2 80-185.6 172.8-185.6 92.7 0 172.8 75.3 172.8 185.6 0 109-80.1 185.6-172.8 185.6zm822.9-473.2v49.8h-4.6c-30.1-36.1-88.1-68.5-161.1-68.5-153.1 0-293.6 134.6-293.6 307.5 0 171.5 140.4 305 293.6 305 73 0 131-32.4 161.1-69.5h4.6v44c0 117.1-62.6 179.8-163.5 179.8-82.4 0-133.4-59.2-154.3-108.9l-117.2 48.7c33.6 81.1 123 180.9 271.4 180.9 157.6 0 291-92.9 291-319V781.5zm-154.2 473.2c-92.7 0-170.6-77.8-170.6-184.4 0-107.8 77.8-186.7 170.6-186.7 91.6 0 163.5 78.8 163.5 186.7.1 106.6-71.8 184.4-163.5 184.4zm374.5-798h134.6v900h-134.6zm503.5 798c-68.4 0-117.2-31.4-148.3-92.7l409.4-169.5-14.1-34.8C5778.8 889.5 5701 763 5542.1 763c-157.7 0-288.8 124.1-288.8 306.2 0 171.5 129.9 306.1 303.9 306.1 140.4 0 221.6-85.7 255.2-135.7l-104.4-69.5c-34.9 51.1-82.5 84.8-150.8 84.7zm-10.5-373.5c53.3 0 98.5 26.7 113.6 64.9l-273.8 113.7c-3.4-118.3 91.7-178.6 160.2-178.6zM6408.9 456.8h-321.8v900h134.3v-340.9H6409c148.9 0 295.3-107.8 295.3-279.6 0-171.5-146.3-279.4-295.1-279.4zm3.5 433.8h-191V582h191c100.4 0 157.6 83.3 157.6 154.3 0 69.8-57.2 154.3-157.6 154.3zm500.2 466.2v-900h-134.3v900zm603.3-1.6v-345c0-159.8-119.4-248.9-273.5-248.9-97.1 0-197.8 42.9-239.5 137.8l119.2 49.7c25.5-49.7 72.9-66 122.8-66 69.4 0 140 41.7 141.1 115.9v9.3c-24.3-13.9-76.3-34.8-140.1-34.8-128.5 0-259.3 70.6-259.3 202.6 0 120.5 105.4 198 223.5 198 90.4 0 140.1-40.5 171.3-87.9h4.6v69.5h129.8zm-289.5-100.6c-44 0-105.4-22-105.4-76.3 0-69.5 76.5-96.3 142.5-96.3 59.1 0 86.8 12.7 122.8 30.1-10.3 80.8-78.6 141.5-159.9 142.5zM7988.2 781l-154 390.1h-4.6L7669.8 781h-144.7l239.6 545.4-136.7 303.3h140.1L8137.4 781z" />
    </g>
</svg>
